<svg height="90" viewBox="0 0 90 90" width="90" xmlns="http://www.w3.org/2000/svg"><path d="m45 90c-24.851562 0-45-20.148438-45-45s20.148438-45 45-45 45 20.148438 45 45-20.148438 45-45 45zm0 0" fill="#f9b105"/><path d="m20.578125 22.800781c-2.425781 0-4.4375 2.011719-4.4375 4.4375v35.523438c0 2.425781 2.011719 4.4375 4.4375 4.4375h48.84375c2.425781 0 4.4375-2.011719 4.4375-4.4375v-35.523438c0-2.425781-2.011719-4.4375-4.4375-4.4375zm5.992187 4.4375h36.855469l-18.425781 13.621094zm-3.769531 5.496094 22.199219 16.40625 22.199219-16.40625v30.027344h-44.398438zm0 0" fill="#094f71"/></svg>